/* XPM */
static xpm_row_t block_light_xpm[] = {
"70 75 215 2",
"  	c #FF0000",
". 	c #DCECE5",
"+ 	c #DBEBE4",
"@ 	c #DEEEE7",
"# 	c #DCEDE6",
"$ 	c #DDEDE6",
"% 	c #DAEBE3",
"& 	c #DAEBE4",
"* 	c #DBECE4",
"= 	c #C6E3DE",
"- 	c #B9DFDB",
"; 	c #B8DEDB",
"> 	c #D0E7E1",
", 	c #A7D7D4",
"' 	c #98D3D1",
") 	c #94D2D0",
"! 	c #80CDCD",
"~ 	c #75CBCC",
"{ 	c #B4DCD9",
"] 	c #D8EBE4",
"^ 	c #BBDFDB",
"/ 	c #D5EAE3",
"( 	c #CCE5DF",
"_ 	c #C7E4DE",
": 	c #8CD0CF",
"< 	c #8BCFCE",
"[ 	c #B6DDDA",
"} 	c #D8EAE4",
"| 	c #DAECE5",
"1 	c #CCE6E0",
"2 	c #DDEEE6",
"3 	c #A7D7D5",
"4 	c #91CFCE",
"5 	c #90CFCE",
"6 	c #B6DDD9",
"7 	c #DDEEE7",
"8 	c #DBECE5",
"9 	c #D2E8E2",
"0 	c #D9ECE5",
"a 	c #DFEEE7",
"b 	c #CFE7E1",
"c 	c #BEDFDA",
"d 	c #D2E8E1",
"e 	c #B5DCD8",
"f 	c #AEDAD7",
"g 	c #A1D5D3",
"h 	c #D3E9E3",
"i 	c #C8E4DF",
"j 	c #C1E1DD",
"k 	c #8FD1D0",
"l 	c #9AD2D1",
"m 	c #A8D7D4",
"n 	c #A5D7D5",
"o 	c #CDE6E0",
"p 	c #BFDFDA",
"q 	c #C8E3DE",
"r 	c #C4E2DD",
"s 	c #BDDFDB",
"t 	c #A4D7D5",
"u 	c #9ED4D2",
"v 	c #9DD4D2",
"w 	c #D4E9E3",
"x 	c #D1E7E1",
"y 	c #CEE6E0",
"z 	c #CAE5DF",
"A 	c #BADEDA",
"B 	c #D6EAE3",
"C 	c #D9EBE5",
"D 	c #D5EBE5",
"E 	c #D5EAE5",
"F 	c #DCEDE7",
"G 	c #DBECE6",
"H 	c #DDEDE7",
"I 	c #D6EBE5",
"J 	c #D1E9E4",
"K 	c #D2E9E4",
"L 	c #D8ECE6",
"M 	c #CCE8E2",
"N 	c #D0E9E4",
"O 	c #D4EAE5",
"P 	c #D4EBE4",
"Q 	c #C4E6E0",
"R 	c #C1E5DF",
"S 	c #BBE2DE",
"T 	c #C4E5E0",
"U 	c #D7EBE5",
"V 	c #D9ECE6",
"W 	c #C8E7E1",
"X 	c #C2E5DF",
"Y 	c #BAE1DE",
"Z 	c #AFDEDB",
"` 	c #B0DEDB",
" .	c #C5E5E1",
"..	c #D3EAE4",
"+.	c #DBEDE6",
"@.	c #CEE9E2",
"#.	c #C3E6E0",
"$.	c #B1DFDB",
"%.	c #CEE8E3",
"&.	c #CBE7E2",
"*.	c #CAE7E2",
"=.	c #D7EAE4",
"-.	c #B6DCD8",
";.	c #9FD3D1",
">.	c #A9D8D5",
",.	c #D1E8E2",
"'.	c #AADCD8",
").	c #97D5D4",
"!.	c #85D0CF",
"~.	c #A1D9D6",
"{.	c #BDE4DE",
"].	c #BEE4DE",
"^.	c #A9DCD8",
"/.	c #B9E1DD",
"(.	c #9ED5D3",
"_.	c #CDE6E1",
":.	c #96D2D1",
"<.	c #A8D8D5",
"[.	c #C6E3DD",
"}.	c #D8ECE5",
"|.	c #C7E7E1",
"1.	c #94D4D3",
"2.	c #77CCCD",
"3.	c #78CCCD",
"4.	c #BDE2DE",
"5.	c #CCE7E3",
"6.	c #CDE8E3",
"7.	c #93D1D0",
"8.	c #AFDAD6",
"9.	c #B8DDD8",
"0.	c #95D2D1",
"a.	c #B7E1DC",
"b.	c #79CCCD",
"c.	c #BCE2DE",
"d.	c #CFE8E3",
"e.	c #C1E1DC",
"f.	c #D2EAE4",
"g.	c #A4DAD7",
"h.	c #7DCDCE",
"i.	c #B0DFDB",
"j.	c #D3EAE5",
"k.	c #B9DEDA",
"l.	c #B2DBD7",
"m.	c #B7DDD9",
"n.	c #D7ECE5",
"o.	c #C6E7E0",
"p.	c #BFE4DF",
"q.	c #BCDFDA",
"r.	c #CBE8E2",
"s.	c #ABDCD9",
"t.	c #DAEDE6",
"u.	c #D1EAE3",
"v.	c #B0DEDA",
"w.	c #A5DAD7",
"x.	c #BFE3DF",
"y.	c #C8E6E1",
"z.	c #C3E5E0",
"A.	c #BEE3DF",
"B.	c #C5E6E0",
"C.	c #8CD2D1",
"D.	c #B4E0DC",
"E.	c #CAE8E2",
"F.	c #B5E0DC",
"G.	c #D0E9E3",
"H.	c #86D0D0",
"I.	c #83CFCF",
"J.	c #B6E0DD",
"K.	c #D5EBE4",
"L.	c #BAE2DD",
"M.	c #77CCCC",
"N.	c #8BD2D1",
"O.	c #B5E0DD",
"P.	c #CCE8E3",
"Q.	c #B8E1DD",
"R.	c #CFE9E3",
"S.	c #B4E0DB",
"T.	c #97D6D4",
"U.	c #BDE3DE",
"V.	c #7ECECE",
"W.	c #A6DBD7",
"X.	c #BBE3DD",
"Y.	c #9CD7D5",
"Z.	c #C0E5DF",
"`.	c #8DD2D1",
" +	c #76CBCC",
".+	c #C3E4E0",
"++	c #C9E6E2",
"@+	c #C7E6E1",
"#+	c #CDE9E2",
"$+	c #B3DFDB",
"%+	c #BAE2DE",
"&+	c #C0E4DF",
"*+	c #9BD7D5",
"=+	c #A9DCD9",
"-+	c #95D5D3",
";+	c #B6E1DC",
">+	c #B8E2DD",
",+	c #9FD8D6",
"'+	c #78CBCC",
")+	c #B7E0DC",
"!+	c #BEE1DC",
"~+	c #77CBCC",
"{+	c #B4DFDB",
"]+	c #B1DEDB",
"^+	c #B4DEDA",
"/+	c #B2DEDB",
"(+	c #B7DFDB",
"_+	c #B7DFDA",
":+	c #B5DEDA",
"<+	c #B1DDDA",
"[+	c #B3DDD9",
"}+	c #B2DEDA",
"|+	c #7BCBCB",
"1+	c #7CCCCC",
"2+	c #B4DEDB",
"                                                                    . +                                                                     ",
"                                                                . @ @ @ #                                                                   ",
"                                                            + @ @ @ @ @ @ @ .                                                               ",
"                                                          $ @ @ @ @ @ @ @ @ @ $                                                             ",
"                                                      $ @ @ @ @ @ @ @ @ @ @ @ @ @ .                                                         ",
"                                                  + @ @ @ @ @ @ @ @ @ @ @ @ @ @ @ @ @ +                                                     ",
"                                              % @ @ @ @ @ @ @ @ @ @ @ @ @ @ @ @ @ @ @ @ $                                                   ",
"                                            $ @ @ @ @ @ @ @ @ @ @ @ @ @ @ @ @ @ @ @ @ @ @ @ .                                               ",
"                                        . @ @ @ @ @ @ @ @ @ @ @ @ @ @ @ @ @ @ @ @ @ @ @ @ @ @ $                                             ",
"                                    & @ @ @ @ @ @ @ @ @ @ @ @ @ @ @ @ @ @ @ @ @ @ @ @ @ @ @ @ @ @ $                                         ",
"                                * $ @ @ @ @ @ = - ; > @ @ @ @ @ @ @ @ @ @ @ @ @ @ @ @ @ @ @ @ @ @ @ @ .                                     ",
"                            & $ @ @ @ @ @ $ , ' ) ! ~ { ] ^ / @ @ @ @ @ @ @ @ @ @ @ @ @ @ @ @ @ @ @ @ @ $                                   ",
"                          $ @ @ @ @ @ @ @ ( # @ @ @ _ : < [ _ @ @ @ @ @ @ @ @ @ @ @ @ @ @ @ @ @ @ @ @ @ @ @ .                               ",
"                      $ @ @ @ @ @ @ @ @ @ } @ @ @ @ @ | 1 @ @ @ @ @ @ @ @ @ @ @ @ @ @ @ @ @ @ @ @ @ @ @ @ @ @ $ *                           ",
"                  . @ @ @ @ @ @ @ @ @ @ @ @ @ @ @ @ @ @ @ @ @ @ @ @ @ @ @ @ @ @ @ @ @ @ @ @ @ @ @ @ @ @ @ @ @ @ @ $                         ",
"              % 2 @ @ @ @ @ @ @ @ @ @ @ @ @ @ @ @ @ @ @ @ @ @ @ @ @ @ @ @ @ @ @ @ @ @ @ > 3 4 5 6 7 @ @ @ @ @ @ @ @ @ 8                     ",
"            . @ @ @ @ @ @ @ @ @ @ @ @ @ @ @ @ @ @ @ @ @ @ @ @ @ @ @ @ @ @ @ @ @ @ @ @ 9 6 0 a @ b c 9 | @ @ @ @ @ @ @ @ @                   ",
"        . @ @ @ @ @ @ @ @ @ @ @ @ @ @ @ @ @ @ @ @ @ @ @ @ @ @ @ @ @ @ @ @ @ @ @ @ @ @ d @ @ @ @ @ e f g h @ @ @ @ @ @ @ @ @ #               ",
"    % @ @ @ | i 1 @ j k l / @ @ @ @ @ @ @ @ @ @ @ @ @ @ @ @ @ @ @ @ @ @ @ @ @ @ @ @ ] m n o @ @ a p @ 7 q @ @ @ @ @ @ @ @ @ @ @ *           ",
"  $ @ @ @ b r s t u v w @ x @ @ @ @ @ @ @ @ @ @ @ @ @ @ @ @ @ @ @ @ @ @ @ @ @ @ @ # y z z A B @ @ C @ @ @ @ @ @ @ @ @ @ @ @ @ @ @ $         ",
"D E F @ @ | @ @ @ ^ G @ @ @ @ @ @ @ @ @ @ @ @ @ @ @ @ @ @ @ @ @ @ @ @ @ @ @ @ @ @ H @ @ @ @ @ @ @ @ @ @ @ @ @ @ @ @ @ @ @ @ @ @ @ @ @ .     ",
"I J K L @ @ @ @ @ @ @ @ @ @ @ @ @ @ @ @ @ @ @ @ @ @ @ @ @ @ @ @ @ @ @ @ @ @ @ @ @ @ @ @ @ @ @ @ @ @ @ @ @ @ @ @ @ @ @ @ @ @ @ @ @ @ @ 7 M   ",
"N J J J O # @ @ @ @ @ @ @ @ @ @ @ @ @ @ @ @ @ @ @ @ @ @ @ @ @ @ @ @ @ @ @ @ @ @ @ @ @ @ @ @ @ @ @ @ @ @ @ @ @ @ @ @ @ @ @ @ @ @ @ @ P Q R 7 ",
"S T N J J J U @ @ @ @ @ @ @ @ @ @ @ @ @ @ @ @ @ @ @ @ @ @ @ @ @ @ @ @ @ @ @ @ @ @ @ @ @ @ @ @ @ @ @ @ @ @ @ @ @ @ @ @ @ @ @ @ @ V W R R X @ ",
"Y Z `  .J J J ..+.@ @ @ @ @ @ @ @ @ @ @ @ @ @ @ @ @ @ @ @ @ @ @ @ @ @ @ @ @ @ @ @ @ @ @ @ @ @ @ @ @ @ @ @ @ @ @ @ @ @ @ @ @ # @.R R R R #.  ",
"Y Z Z $.T %.&.*.J I 7 @ @ @ @ @ @ @ @ @ @ @ @ =.-.;.>.,.@ @ @ @ $ 8 @ @ @ @ @ @ @ @ @ @ @ @ @ @ @ @ @ @ @ @ @ @ @ @ @ @ @ ..'.).!.~.{.].^.  ",
"Y Z Z Z Z Z Z /.J J K V @ @ @ @ @ @ @ @ @ @ o ( @ @ ] (._.@ @ ^ :.<.[.@ @ @ @ @ @ @ @ @ @ @ @ @ @ @ @ @ @ @ @ @ @ @ @ }.|.R 1.~ ~ ~ 2.3.~   ",
"Y Z Z Z Z Z Z Z 4.5.6.*.E F @ @ @ @ @ @ @ | ( @ @ @ @ C 7.8.9.0.# @ # | @ @ @ @ @ @ @ @ @ @ @ @ @ @ @ @ @ @ @ @ @ # M R R a.b.~ ~ ~ ~ ~ ~   ",
"Y Z Z Z Z Z Z Z Z Z Z Z c.d.L @ @ @ @ @ @ d @ @ @ @ @ @ e.C @ C @ @ @ @ @ @ @ @ @ @ @ @ @ @ @ @ @ @ @ @ @ @ @ @ f.#.R R g.h.~ ~ ~ ~ ~ ~ ~   ",
"Y Z Z Z Z Z Z Z Z Z Z Z i.N J j.+.@ @ @ @ # @ @ @ @ @ @ @ @ @ @ @ @ @ @ @ @ @ @ @ @ @ @ @ @ $ k.l.m./ @ @ @ n.o.R R R p.3.~ ~ ~ ~ ~ ~ ~ ~   ",
"Y Z Z Z Z Z Z Z Z Z Z Z ` N J J J U 7 @ @ @ @ @ @ @ @ @ @ @ @ @ @ @ @ @ @ @ @ @ @ @ @ @ @ @ q.w @ @ @ @ +.r.R R R R R s.~ ~ ~ ~ ~ ~ ~ ~ ~   ",
"Y Z Z Z Z Z Z Z Z Z Z Z Z T J J J J ..t.@ @ @ @ @ @ @ @ @ @ @ @ @ @ @ @ @ @ @ @ @ @ @ @ @ $ x @ @ @ 7 u.X R R ^.v.a.w.b.~ ~ ~ ~ ~ ~ ~ ~ ~   ",
"Y Z Z Z Z Z Z Z Z Z Z Z Z ` x.y.z.A.d.J I 7 @ @ @ @ @ @ @ @ @ @ @ @ @ @ @ @ @ @ @ @ @ @ @ @ @ @ @ I B.R R R R C.~ ~ ~ ~ ~ ~ ~ ~ ~ ~ ~ ~ ~   ",
"Y Z Z Z Z Z Z Z Z Z Z Z Z Z Z Z Z Z ` D.N K V @ @ @ @ @ @ @ @ @ @ @ @ @ @ @ @ @ @ @ @ @ @ @ @ t.E.R R ].R R g.~ ~ ~ ~ ~ ~ ~ ~ ~ ~ ~ ~ ~ ~   ",
"Y Z Z Z Z Z Z Z Z Z Z Z Z Z Z Z Z Z Z F.J J J O F @ @ @ @ @ @ @ @ @ @ @ @ @ @ @ @ @ @ @ @ 7 G.X R R R H.C.I.~ ~ ~ ~ ~ ~ ~ ~ ~ ~ ~ ~ ~ ~ ~   ",
"Y Z Z Z Z Z Z Z Z Z Z Z Z Z Z Z Z Z Z J.J J J J J L @ @ @ @ @ @ @ @ @ @ @ @ @ @ @ @ @ @ K.B.R R R R L.M.~ ~ ~ ~ ~ ~ ~ ~ ~ ~ ~ ~ ~ ~ ~ ~ ~   ",
"Y Z Z Z Z Z Z Z Z Z Z Z Z Z Z Z Z Z Z ` 6.J J J N N j.+.@ @ @ @ @ @ @ @ @ @ @ @ @ @ t.W R R R R R L.N.~ ~ ~ ~ ~ ~ ~ ~ ~ ~ ~ ~ ~ ~ ~ ~ ~ ~   ",
"Y Z Z Z Z Z Z Z Z Z Z Z Z Z Z Z Z Z Z Z O.&.J P.Q.D.c.J U 7 @ @ @ @ @ @ @ @ @ @ 7 R.X S.R R R R T.2.~ ~ ~ ~ ~ ~ ~ ~ ~ ~ ~ ~ ~ ~ ~ ~ ~ ~ ~   ",
"Y Z Z Z Z Z Z Z Z Z Z Z Z Z Z Z Z Z Z Z Z Z ` Z Z Z ` N J f.t.@ @ @ @ @ @ @ @ P Q R U.V.W.].X.Y.~ ~ ~ ~ ~ ~ ~ ~ ~ ~ ~ ~ ~ ~ ~ ~ ~ ~ ~ ~ ~   ",
"Y Z Z Z Z Z Z Z Z Z Z Z Z Z Z Z Z Z Z Z Z Z Z Z Z Z Z  .J J J D 7 @ @ @ @ V W Z.p.a.`.~ ~  +~ ~ ~ ~ ~ ~ ~ ~ ~ ~ ~ ~ ~ ~ ~ ~ ~ ~ ~ ~ ~ ~ ~   ",
"Y Z Z Z Z Z Z Z Z Z Z Z Z Z Z Z Z Z Z Z Z Z Z Z Z Z Z ` .+5.++@+K V @ # #+R R $+3. +~ ~ ~ ~ ~ ~ ~ ~ ~ ~ ~ ~ ~ ~ ~ ~ ~ ~ ~ ~ ~ ~ ~ ~ ~ ~ ~   ",
"Y Z Z Z Z Z Z Z Z Z Z Z Z Z Z Z Z Z Z Z Z Z Z Z Z Z Z Z Z Z Z Z %+x.&+z.R R R *+~ ~ ~ ~ ~ ~ ~ ~ ~ ~ ~ ~ ~ ~ ~ ~ ~ ~ ~ ~ ~ ~ ~ ~ ~ ~ ~ ~ ~   ",
"Y Z Z Z Z Z Z Z Z Z Z Z Z Z Z Z Z Z Z Z Z Z Z Z Z Z Z Z Z Z Z Z Z Z =+-+;+>+,+ +~ ~ ~ ~ ~ ~ ~ ~ ~ ~ ~ ~ ~ ~ ~ ~ ~ ~ ~ ~ ~ ~ ~ ~ ~ ~ ~ ~ ~   ",
"Y Z Z Z Z Z Z Z Z Z Z Z Z Z Z Z Z Z Z Z Z Z Z Z Z Z Z Z Z Z Z Z Z Z =+~ ~ ~ ~ ~ ~ ~ ~ ~ ~ ~ ~ ~ ~ ~ ~ ~ ~ ~ ~ ~ ~ ~ ~ ~ ~ ~ ~ ~ ~ ~ ~ ~ ~   ",
"Y Z Z Z Z Z Z Z Z Z Z Z Z Z Z Z Z Z Z Z Z Z Z Z Z Z Z Z Z Z Z Z Z Z =+~ ~ ~ ~ ~ ~ ~ ~ ~ ~ ~ ~ ~ ~ ~ ~ ~ ~ ~ ~ ~ ~ ~ ~ ~ ~ ~ ~ ~ ~ ~ ~ ~ ~   ",
"Y Z Z Z Z Z Z Z Z Z Z Z Z Z Z Z Z Z Z Z Z Z Z Z Z Z Z Z Z Z Z Z Z Z =+~ ~ ~ ~ ~ ~ ~ ~ ~ ~ ~ ~ ~ ~ ~ ~ ~ ~ ~ ~ ~ ~ ~ ~ ~ ~ ~ ~ ~ ~ ~ ~ ~ ~   ",
"Y Z Z Z Z Z Z Z Z Z Z Z Z Z Z Z Z Z Z Z Z Z Z Z Z Z Z Z Z Z Z Z Z Z =+~ ~ ~ ~ ~ ~ ~ ~ ~ ~ ~ ~ ~ ~ ~ ~ ~ ~ ~ ~ ~ ~ ~ ~ ~ ~ ~ ~ ~ ~ ~ ~ ~ ~   ",
"Y Z Z Z Z Z Z Z Z Z Z Z Z Z Z Z Z Z Z Z Z Z Z Z Z Z Z Z Z Z Z Z Z Z =+~ ~ ~ ~ ~ ~ ~ ~ ~ ~ ~ ~ ~ ~ ~ ~ ~ ~ ~ ~ ~ ~ ~ ~ ~ ~ ~ ~ ~ ~ ~ ~ ~ ~   ",
"Y Z Z Z Z Z Z Z Z Z Z Z Z Z Z Z Z Z Z Z Z Z Z Z Z Z Z Z Z Z Z Z Z Z =+~ ~ ~ ~ ~ ~ ~ ~ ~ ~ ~ ~ ~ ~ ~ ~ ~ ~ ~ ~ ~ ~ ~ ~ ~ ~ ~ ~ ~ ~ ~ ~ ~ ~   ",
"Y Z Z Z Z Z Z Z Z Z Z Z Z Z Z Z Z Z Z Z Z Z Z Z Z Z Z Z Z Z Z Z Z Z =+~ ~ ~ ~ ~ ~ ~ ~ ~ ~ ~ ~ ~ ~ ~ ~ ~ ~ ~ ~ ~ ~ ~ ~ ~ ~ ~ ~ ~ ~ ~ ~ ~ ~   ",
"Y Z Z Z Z Z Z Z Z Z Z Z Z Z Z Z Z Z Z Z Z Z Z Z Z Z Z Z Z Z Z Z Z Z =+~ ~ ~ ~ ~ ~ ~ ~ ~ ~ ~ ~ ~ ~ ~ ~ ~ ~ ~ ~ ~ ~ ~ ~ ~ ~ ~ ~ ~ ~ ~ ~ ~ ~   ",
"Y Z Z Z Z Z Z Z Z Z Z Z Z Z Z Z Z Z Z Z Z Z Z Z Z Z Z Z Z Z Z Z Z Z =+~ ~ ~ ~ ~ ~ ~ ~ ~ ~ ~ ~ ~ ~ ~ ~ ~ ~ ~ ~ ~ ~ ~ ~ ~ ~ ~ ~ ~ ~ ~ ~ ~ ~   ",
"Y Z Z Z Z Z Z Z Z Z Z Z Z Z Z Z Z Z Z Z Z Z Z Z Z Z Z Z Z Z Z Z Z Z =+~ ~ ~ ~ ~ ~ ~ ~ ~ ~ ~ ~ ~ ~ ~ ~ ~ ~ ~ ~ ~ ~ ~ ~ ~ ~ ~ ~ ~ ~ ~ ~ ~ ~   ",
"  $.Z Z Z Z Z Z Z Z Z Z Z Z Z Z Z Z Z Z Z Z Z Z Z Z Z Z Z Z Z Z Z Z =+~ ~ ~ ~ ~ ~ ~ ~ ~ ~ ~ ~ ~ ~ ~ ~ ~ ~ ~ ~ ~ ~ ~ ~ ~ ~ ~ ~ ~ ~ ~ ~ ~ '+  ",
"    )+Z Z Z Z Z Z Z Z Z Z Z Z Z Z Z Z Z Z Z Z Z Z Z Z Z Z Z Z Z Z Z =+~ ~ ~ ~ ~ ~ ~ ~ ~ ~ ~ ~ ~ ~ ~ ~ ~ ~ ~ ~ ~ ~ ~ ~ ~ ~ ~ ~ ~ ~ ~  +      ",
"      !+$+Z Z Z Z Z Z Z Z Z Z Z Z Z Z Z Z Z Z Z Z Z Z Z Z Z Z Z Z Z =+~ ~ ~ ~ ~ ~ ~ ~ ~ ~ ~ ~ ~ ~ ~ ~ ~ ~ ~ ~ ~ ~ ~ ~ ~ ~ ~ ~ ~ ~ ~+        ",
"          - ` Z Z Z Z Z Z Z Z Z Z Z Z Z Z Z Z Z Z Z Z Z Z Z Z Z Z Z =+~ ~ ~ ~ ~ ~ ~ ~ ~ ~ ~ ~ ~ ~ ~ ~ ~ ~ ~ ~ ~ ~ ~ ~ ~ ~ ~ ~ '+            ",
"              {+Z Z Z Z Z Z Z Z Z Z Z Z Z Z Z Z Z Z Z Z Z Z Z Z Z Z =+~ ~ ~ ~ ~ ~ ~ ~ ~ ~ ~ ~ ~ ~ ~ ~ ~ ~ ~ ~ ~ ~ ~ ~ ~ ~ ~ ~+              ",
"                m.]+Z Z Z Z Z Z Z Z Z Z Z Z Z Z Z Z Z Z Z Z Z Z Z Z =+~ ~ ~ ~ ~ ~ ~ ~ ~ ~ ~ ~ ~ ~ ~ ~ ~ ~ ~ ~ ~ ~ ~ ~ ~ ~+                  ",
"                    ^+Z Z Z Z Z Z Z Z Z Z Z Z Z Z Z Z Z Z Z Z Z Z Z =+~ ~ ~ ~ ~ ~ ~ ~ ~ ~ ~ ~ ~ ~ ~ ~ ~ ~ ~ ~ ~ ~ ~  +                      ",
"                        /+Z Z Z Z Z Z Z Z Z Z Z Z Z Z Z Z Z Z Z Z Z =+~ ~ ~ ~ ~ ~ ~ ~ ~ ~ ~ ~ ~ ~ ~ ~ ~ ~ ~ ~ ~ ~  +                        ",
"                          (+Z Z Z Z Z Z Z Z Z Z Z Z Z Z Z Z Z Z Z Z =+~ ~ ~ ~ ~ ~ ~ ~ ~ ~ ~ ~ ~ ~ ~ ~ ~ ~ ~ ~ ~                             ",
"                              $+Z Z Z Z Z Z Z Z Z Z Z Z Z Z Z Z Z Z =+~ ~ ~ ~ ~ ~ ~ ~ ~ ~ ~ ~ ~ ~ ~ ~ ~ ~ ~ ~+                              ",
"                                _+` Z Z Z Z Z Z Z Z Z Z Z Z Z Z Z Z =+~ ~ ~ ~ ~ ~ ~ ~ ~ ~ ~ ~ ~ ~ ~ ~ ~  +                                  ",
"                                    ^+Z Z Z Z Z Z Z Z Z Z Z Z Z Z Z =+~ ~ ~ ~ ~ ~ ~ ~ ~ ~ ~ ~ ~ ~ ~  +                                      ",
"                                        ]+Z Z Z Z Z Z Z Z Z Z Z Z Z =+~ ~ ~ ~ ~ ~ ~ ~ ~ ~ ~ ~ ~ ~ '+                                        ",
"                                          :+Z Z Z Z Z Z Z Z Z Z Z Z =+~ ~ ~ ~ ~ ~ ~ ~ ~ ~ ~ ~ ~                                             ",
"                                              <+Z Z Z Z Z Z Z Z Z Z =+~ ~ ~ ~ ~ ~ ~ ~ ~ ~  + +                                              ",
"                                                [+` Z Z Z Z Z Z Z Z =+~ ~ ~ ~ ~ ~ ~ ~ ~  +                                                  ",
"                                                    }+Z Z Z Z Z Z Z =+~ ~ ~ ~ ~ ~ ~ ~                                                       ",
"                                                        ` Z Z Z Z Z =+~ ~ ~ ~ ~ ~ |+                                                        ",
"                                                          ^+Z Z Z Z =+~ ~ ~ ~ '+                                                            ",
"                                                              ]+Z Z =+~ ~ ~+1+                                                              ",
"                                                                2+` =+~ 1+                                                                  ",
"                                                                    s.                                                                      "};
